<?xml version="1.0" encoding="utf-8"?>
<svg version="1.1" xmlns:xlink="http://www.w3.org/1999/xlink" width="366px" height="84px" xmlns="http://www.w3.org/2000/svg">
  <defs>
    <mask fill="white" id="clip2">
      <path d="M 34 85  C 28.45 85  24 80.55  24 75  L 24 11  C 24 5.45  28.45 1  34 1  L 380 1  C 385.55 1  390 5.45  390 11  L 390 75  C 390 80.55  385.55 85  380 85  " fill-rule="evenodd" />
    </mask>
  </defs>
  <g transform="matrix(1 0 0 1 -24 -1 )">
    <path d="M 24 1  L 390 1  L 390 85  L 24 85  L 24 1  " fill-rule="nonzero" fill="#cccccc" stroke="none" mask="url(#clip2)" />
    <path d="M 30 7  L 384 7  L 384 79  L 30 79  L 30 7  " fill-rule="nonzero" fill="#ffffff" stroke="none" mask="url(#clip2)" />
    <path d="M 220.62 26.2  C 217.092 26.2  214.32 23.428  214.32 19.9  C 214.32 16.372  217.092 13.6  220.62 13.6  C 224.148 13.6  226.92 16.372  226.92 19.9  C 226.92 23.428  224.148 26.2  220.62 26.2  " fill-rule="nonzero" fill="#cccccc" stroke="none" mask="url(#clip2)" />
    <path d="M 32 77  L 32 39.6  L 119.5 22.6  L 242 67.6360655737705  L 312 32.8  L 382 67.6360655737705  L 382 77  L 32 77  " fill-rule="nonzero" fill="#169bd5" stroke="none" mask="url(#clip2)" />
  </g>
</svg>