<?xml version="1.0" encoding="utf-8"?>
<svg version="1.1" xmlns:xlink="http://www.w3.org/1999/xlink" width="15px" height="15px" xmlns="http://www.w3.org/2000/svg">
  <g transform="matrix(1 0 0 1 -375 -14 )">
    <path d="M 382.5 15  C 386.14 15  389 17.86  389 21.5  C 389 25.14  386.14 28  382.5 28  C 378.86 28  376 25.14  376 21.5  C 376 17.86  378.86 15  382.5 15  Z " fill-rule="nonzero" fill="#ffffff" stroke="none" />
    <path d="M 382.5 15  C 386.14 15  389 17.86  389 21.5  C 389 25.14  386.14 28  382.5 28  C 378.86 28  376 25.14  376 21.5  C 376 17.86  378.86 15  382.5 15  Z " stroke-width="2" stroke="#000000" fill="none" />
  </g>
</svg>