<?xml version="1.0" encoding="utf-8"?>
<svg version="1.1" xmlns:xlink="http://www.w3.org/1999/xlink" width="57px" height="57px" xmlns="http://www.w3.org/2000/svg">
  <defs>
    <mask fill="white" id="clip12">
      <path d="M 47 124  C 44.225 124  42 121.775  42 119  L 42 72  C 42 69.225  44.225 67  47 67  L 94 67  C 96.775 67  99 69.225  99 72  L 99 119  C 99 121.775  96.775 124  94 124  " fill-rule="evenodd" />
    </mask>
  </defs>
  <g transform="matrix(1 0 0 1 -42 -67 )">
    <path d="M 42 67  L 99 67  L 99 124  L 42 124  L 42 67  " fill-rule="nonzero" fill="#cccccc" stroke="none" mask="url(#clip12)" />
    <path d="M 46 71  L 95 71  L 95 120  L 46 120  L 46 71  " fill-rule="nonzero" fill="#ffffff" stroke="none" mask="url(#clip12)" />
    <path d="M 75.915 84.1  C 73.521 84.1  71.64 82.219  71.64 79.825  C 71.64 77.431  73.521 75.55  75.915 75.55  C 78.309 75.55  80.19 77.431  80.19 79.825  C 80.19 82.219  78.309 84.1  75.915 84.1  " fill-rule="nonzero" fill="#cccccc" stroke="none" mask="url(#clip12)" />
    <path d="M 48 119  L 48 93.7  L 59.5 82.2  L 75.6 91.4  L 84.8 89.1  L 94 91.4  L 94 119  L 48 119  " fill-rule="nonzero" fill="#169bd5" stroke="none" mask="url(#clip12)" />
  </g>
</svg>