<?xml version="1.0" encoding="utf-8"?>
<svg version="1.1" xmlns:xlink="http://www.w3.org/1999/xlink" width="394px" height="92px" xmlns="http://www.w3.org/2000/svg">
  <defs>
    <mask fill="white" id="clip5">
      <path d="M 15 96  C 12.225 96  10 93.775  10 91  L 10 9  C 10 6.225  12.225 4  15 4  L 399 4  C 401.775 4  404 6.225  404 9  L 404 91  C 404 93.775  401.775 96  399 96  " fill-rule="evenodd" />
    </mask>
  </defs>
  <g transform="matrix(1 0 0 1 -10 -4 )">
    <path d="M 10 4  L 404 4  L 404 96  L 10 96  L 10 4  " fill-rule="nonzero" fill="#cccccc" stroke="none" mask="url(#clip5)" />
    <path d="M 16 10  L 398 10  L 398 90  L 16 90  L 16 10  " fill-rule="nonzero" fill="#ffffff" stroke="none" mask="url(#clip5)" />
    <path d="M 221.78 31.6  C 217.916 31.6  214.88 28.564  214.88 24.7  C 214.88 20.836  217.916 17.8  221.78 17.8  C 225.644 17.8  228.68 20.836  228.68 24.7  C 228.68 28.564  225.644 31.6  221.78 31.6  " fill-rule="nonzero" fill="#cccccc" stroke="none" mask="url(#clip5)" />
    <path d="M 19 88  L 19 46.75  L 113.25 28  L 245.2 77.492385786802  L 320.6 39.25  L 396 77.492385786802  L 396 88  L 19 88  " fill-rule="nonzero" fill="#169bd5" stroke="none" mask="url(#clip5)" />
  </g>
</svg>