<?xml version="1.0" encoding="utf-8"?>
<svg version="1.1" xmlns:xlink="http://www.w3.org/1999/xlink" width="15px" height="15px" xmlns="http://www.w3.org/2000/svg">
  <g transform="matrix(1 0 0 1 -375 -17 )">
    <path d="M 382.5 18  C 386.14 18  389 20.86  389 24.5  C 389 28.14  386.14 31  382.5 31  C 378.86 31  376 28.14  376 24.5  C 376 20.86  378.86 18  382.5 18  Z " fill-rule="nonzero" fill="#ffffff" stroke="none" />
    <path d="M 382.5 18  C 386.14 18  389 20.86  389 24.5  C 389 28.14  386.14 31  382.5 31  C 378.86 31  376 28.14  376 24.5  C 376 20.86  378.86 18  382.5 18  Z " stroke-width="2" stroke="#000000" fill="none" />
  </g>
</svg>