<?xml version="1.0" encoding="utf-8"?>
<svg version="1.1" xmlns:xlink="http://www.w3.org/1999/xlink" width="60px" height="60px" xmlns="http://www.w3.org/2000/svg">
  <g transform="matrix(1 0 0 1 -177 -111 )">
    <path d="M 207 111  C 223.8 111  237 124.2  237 141  C 237 157.8  223.8 171  207 171  C 190.2 171  177 157.8  177 141  C 177 124.2  190.2 111  207 111  Z " fill-rule="nonzero" fill="#ffffff" stroke="none" />
    <path d="M 207 111.5  C 223.52 111.5  236.5 124.48  236.5 141  C 236.5 157.52  223.52 170.5  207 170.5  C 190.48 170.5  177.5 157.52  177.5 141  C 177.5 124.48  190.48 111.5  207 111.5  Z " stroke-width="1" stroke="#797979" fill="none" />
  </g>
</svg>