<?xml version="1.0" encoding="utf-8"?>
<svg version="1.1" xmlns:xlink="http://www.w3.org/1999/xlink" width="106px" height="86px" xmlns="http://www.w3.org/2000/svg">
  <g transform="matrix(1 0 0 1 -10 -148 )">
    <path d="M 10 148  L 116 148  L 116 234  L 10 234  L 10 148  " fill-rule="nonzero" fill="#cccccc" stroke="none" />
    <path d="M 16 154  L 110 154  L 110 228  L 16 228  L 16 154  " fill-rule="nonzero" fill="#ffffff" stroke="none" />
    <path d="M 71.57 173.8  C 67.958 173.8  65.12 170.962  65.12 167.35  C 65.12 163.738  67.958 160.9  71.57 160.9  C 75.182 160.9  78.02 163.738  78.02 167.35  C 78.02 170.962  75.182 173.8  71.57 173.8  " fill-rule="nonzero" fill="#cccccc" stroke="none" />
    <path d="M 18 226  L 18 187.5  L 40.5 170  L 72 191.924528301887  L 90 180.5  L 108 191.924528301887  L 108 226  L 18 226  " fill-rule="nonzero" fill="#169bd5" stroke="none" />
  </g>
</svg>