<?xml version="1.0" encoding="utf-8"?>
<svg version="1.1" xmlns:xlink="http://www.w3.org/1999/xlink" width="29px" height="27px" xmlns="http://www.w3.org/2000/svg">
  <g transform="matrix(1 0 0 1 -20 -89 )">
    <path d="M 20 89  L 49 89  L 49 116  L 20 116  L 20 89  " fill-rule="nonzero" fill="#cccccc" stroke="none" />
    <path d="M 22 91  L 47 91  L 47 114  L 22 114  L 22 91  " fill-rule="nonzero" fill="#ffffff" stroke="none" />
    <path d="M 37.105 97.1  C 35.971 97.1  35.08 96.209  35.08 95.075  C 35.08 93.941  35.971 93.05  37.105 93.05  C 38.239 93.05  39.13 93.941  39.13 95.075  C 39.13 96.209  38.239 97.1  37.105 97.1  " fill-rule="nonzero" fill="#cccccc" stroke="none" />
    <path d="M 23 114  L 23 101.9  L 29 96.4  L 37.4 101.710344827586  L 42.2 99.7  L 47 101.710344827586  L 47 114  L 23 114  " fill-rule="nonzero" fill="#169bd5" stroke="none" />
  </g>
</svg>