<?xml version="1.0" encoding="utf-8"?>
<svg version="1.1" xmlns:xlink="http://www.w3.org/1999/xlink" width="11px" height="14px" xmlns="http://www.w3.org/2000/svg">
  <g transform="matrix(1 0 0 1 -247 -156 )">
    <path d="M 10.926953125 10.1217447916667  C 10.9756510416667 10.5805121527778  11 11.0681423611111  11 11.5846354166667  C 11 12.2469618055556  10.8209635416667 12.8151041666667  10.462890625 13.2890625  C 10.1048177083333 13.7630208333333  9.67369791666667 14  9.16953125 14  L 1.83046875 14  C 1.32630208333333 14  0.895182291666667 13.7630208333333  0.537109375 13.2890625  C 0.179036458333333 12.8151041666667  0 12.2469618055556  0 11.5846354166667  C 0 11.0681423611111  0.0243489583333334 10.5805121527778  0.0730468750000001 10.1217447916667  C 0.121744791666667 9.66297743055555  0.211979166666667 9.201171875  0.34375 8.736328125  C 0.475520833333334 8.271484375  0.643098958333333 7.87348090277778  0.846484375 7.54231770833333  C 1.04986979166667 7.21115451388889  1.319140625 6.94075520833333  1.654296875 6.73111979166667  C 1.989453125 6.521484375  2.37473958333333 6.41666666666667  2.81015625 6.41666666666667  C 3.56067708333333 7.19444444444444  4.45729166666667 7.58333333333333  5.5 7.58333333333333  C 6.54270833333334 7.58333333333333  7.43932291666667 7.19444444444444  8.18984375 6.41666666666667  C 8.62526041666667 6.41666666666667  9.010546875 6.521484375  9.345703125 6.73111979166667  C 9.680859375 6.94075520833333  9.95013020833333 7.21115451388889  10.153515625 7.54231770833333  C 10.3569010416667 7.87348090277778  10.5244791666667 8.271484375  10.65625 8.736328125  C 10.7880208333333 9.201171875  10.8782552083333 9.66297743055555  10.926953125 10.1217447916667  Z M 7.833203125 1.025390625  C 8.477734375 1.708984375  8.8 2.53385416666667  8.8 3.5  C 8.8 4.46614583333333  8.477734375 5.291015625  7.833203125 5.974609375  C 7.188671875 6.658203125  6.4109375 7  5.5 7  C 4.5890625 7  3.811328125 6.658203125  3.166796875 5.974609375  C 2.522265625 5.291015625  2.2 4.46614583333333  2.2 3.5  C 2.2 2.53385416666667  2.522265625 1.708984375  3.166796875 1.025390625  C 3.811328125 0.341796875  4.5890625 0  5.5 0  C 6.4109375 0  7.188671875 0.341796875  7.833203125 1.025390625  Z " fill-rule="nonzero" fill="#7f7f7f" stroke="none" transform="matrix(1 0 0 1 247 156 )" />
  </g>
</svg>