<?xml version="1.0" encoding="utf-8"?>
<svg version="1.1" xmlns:xlink="http://www.w3.org/1999/xlink" width="84px" height="55px" xmlns="http://www.w3.org/2000/svg">
  <g transform="matrix(1 0 0 1 -152 -332 )">
    <path d="M 152 332  L 236 332  L 236 387  L 152 387  L 152 332  " fill-rule="nonzero" fill="#cccccc" stroke="none" />
    <path d="M 156 336  L 232 336  L 232 383  L 156 383  L 156 336  " fill-rule="nonzero" fill="#ffffff" stroke="none" />
    <path d="M 199.805 348.5  C 197.495 348.5  195.68 346.685  195.68 344.375  C 195.68 342.065  197.495 340.25  199.805 340.25  C 202.115 340.25  203.93 342.065  203.93 344.375  C 203.93 346.685  202.115 348.5  199.805 348.5  " fill-rule="nonzero" fill="#cccccc" stroke="none" />
    <path d="M 158 382  L 158 357.8  L 176.25 346.8  L 201.8 364.714285714286  L 216.4 353.4  L 231 364.714285714286  L 231 382  L 158 382  " fill-rule="nonzero" fill="#169bd5" stroke="none" />
  </g>
</svg>