<?xml version="1.0" encoding="utf-8"?>
<svg version="1.1" xmlns:xlink="http://www.w3.org/1999/xlink" width="189px" height="152px" xmlns="http://www.w3.org/2000/svg">
  <g transform="matrix(1 0 0 1 -111 -128 )">
    <path d="M 57.4875 30.875  C 61.1625 34.5694444444444  63 39.0555555555555  63 44.3333333333333  C 63 49.6111111111111  61.1625 54.0972222222222  57.4875 57.7916666666667  C 53.8125 61.4861111111111  49.35 63.3333333333333  44.1 63.3333333333333  C 38.85 63.3333333333333  34.3875 61.4861111111111  30.7125 57.7916666666667  C 27.0375 54.0972222222222  25.2 49.6111111111111  25.2 44.3333333333333  C 25.2 39.0555555555555  27.0375 34.5694444444444  30.7125 30.875  C 34.3875 27.1805555555555  38.85 25.3333333333333  44.1 25.3333333333333  C 49.35 25.3333333333333  53.8125 27.1805555555555  57.4875 30.875  Z M 122.85 41.1666666666667  L 163 82.3333333333333  L 163 126  L 26 126  L 26 107.666666666667  L 56.7 76  L 72.45 91.8333333333333  L 122.85 41.1666666666667  Z M 175.46484375 13.6067708333333  C 174.84140625 12.9800347222222  174.103125 12.6666666666667  173.25 13  L 15.75 13  C 14.896875 12.6666666666667  14.15859375 12.9800347222222  13.53515625 13.6067708333333  C 12.91171875 14.2335069444444  12.6 14.9756944444444  13 15.8333333333333  L 13 136.166666666667  C 12.6 137.024305555556  12.91171875 137.766493055556  13.53515625 138.393229166667  C 14.15859375 139.019965277778  14.896875 139.333333333333  15.75 139  L 173.25 139  C 174.103125 139.333333333333  174.84140625 139.019965277778  175.46484375 138.393229166667  C 176.08828125 137.766493055556  176.4 137.024305555556  176 136.166666666667  L 176 15.8333333333333  C 176.4 14.9756944444444  176.08828125 14.2335069444444  175.46484375 13.6067708333333  Z M 184.3734375 4.65104166666667  C 187.4578125 7.7517361111111  189 11.4791666666667  189 15.8333333333333  L 189 136.166666666667  C 189 140.520833333333  187.4578125 144.248263888889  184.3734375 147.348958333333  C 181.2890625 150.449652777778  177.58125 152  173.25 152  L 15.75 152  C 11.41875 152  7.7109375 150.449652777778  4.6265625 147.348958333333  C 1.5421875 144.248263888889  0 140.520833333333  0 136.166666666667  L 0 15.8333333333333  C 0 11.4791666666667  1.5421875 7.7517361111111  4.6265625 4.65104166666667  C 7.7109375 1.55034722222221  11.41875 0  15.75 0  L 173.25 0  C 177.58125 0  181.2890625 1.55034722222221  184.3734375 4.65104166666667  Z " fill-rule="nonzero" fill="#f2f2f2" stroke="none" transform="matrix(1 0 0 1 111 128 )" />
  </g>
</svg>