<?xml version="1.0" encoding="utf-8"?>
<svg version="1.1" xmlns:xlink="http://www.w3.org/1999/xlink" width="159px" height="148px" xmlns="http://www.w3.org/2000/svg">
  <g transform="matrix(1 0 0 1 -133 -139 )">
    <path d="M 29 107  L 44 107  L 44 121  L 29 121  L 29 107  Z M 29 27  L 44 27  L 44 41  L 29 41  L 29 27  Z M 115 27  L 130 27  L 130 41  L 115 41  L 115 27  Z M 15 94  L 15 134  L 58 134  L 58 94  L 15 94  Z M 15 14  L 15 54  L 58 54  L 58 14  L 15 14  Z M 101 14  L 101 54  L 144 54  L 144 14  L 101 14  Z M 0 80  L 73 80  L 73 148  L 0 148  L 0 80  Z M 115 134  L 130 134  L 130 148  L 115 148  L 115 134  Z M 144 134  L 159 134  L 159 148  L 144 148  L 144 134  Z M 144 80  L 159 80  L 159 121  L 115 121  L 115 107  L 101 107  L 101 148  L 86 148  L 86 80  L 130 80  L 130 94  L 144 94  L 144 80  Z M 0 0  L 73 0  L 73 68  L 0 68  L 0 0  Z M 86 0  L 159 0  L 159 68  L 86 68  L 86 0  Z " fill-rule="nonzero" fill="#000000" stroke="none" transform="matrix(1 0 0 1 133 139 )" />
  </g>
</svg>