<?xml version="1.0" encoding="utf-8"?>
<svg version="1.1" xmlns:xlink="http://www.w3.org/1999/xlink" width="35px" height="35px" xmlns="http://www.w3.org/2000/svg">
  <g transform="matrix(1 0 0 1 -27 -299 )">
    <path d="M 27 299  L 62 299  L 62 334  L 27 334  L 27 299  " fill-rule="nonzero" fill="#cccccc" stroke="none" />
    <path d="M 29 301  L 60 301  L 60 332  L 29 332  L 29 301  " fill-rule="nonzero" fill="#ffffff" stroke="none" />
    <path d="M 47.825 309.5  C 46.355 309.5  45.2 308.345  45.2 306.875  C 45.2 305.405  46.355 304.25  47.825 304.25  C 49.295 304.25  50.45 305.405  50.45 306.875  C 50.45 308.345  49.295 309.5  47.825 309.5  " fill-rule="nonzero" fill="#cccccc" stroke="none" />
    <path d="M 30 331  L 30 315.05  L 37.25 307.8  L 47.4 313.6  L 53.2 312.15  L 59 313.6  L 59 331  L 30 331  " fill-rule="nonzero" fill="#169bd5" stroke="none" />
  </g>
</svg>