<?xml version="1.0" encoding="utf-8"?>
<svg version="1.1" xmlns:xlink="http://www.w3.org/1999/xlink" width="20px" height="15px" xmlns="http://www.w3.org/2000/svg">
  <g transform="matrix(1 0 0 1 -61 -351 )">
    <path d="M 4.228515625 10.059375  C 4.53450520833333 9.765625  4.6875 9.4125  4.6875 9  C 4.6875 8.5875  4.53450520833333 8.234375  4.228515625 7.940625  C 3.92252604166667 7.646875  3.5546875 7.5  3.125 7.5  C 2.6953125 7.5  2.32747395833333 7.646875  2.021484375 7.940625  C 1.71549479166667 8.234375  1.5625 8.5875  1.5625 9  C 1.5625 9.4125  1.71549479166667 9.765625  2.021484375 10.059375  C 2.32747395833333 10.353125  2.6953125 10.5  3.125 10.5  C 3.5546875 10.5  3.92252604166667 10.353125  4.228515625 10.059375  Z M 5.908203125 2.653125  L 5.0390625 6  L 14.9609375 6  L 14.091796875 2.653125  C 14.0787760416667 2.603125  14.033203125 2.5484375  13.955078125 2.4890625  C 13.876953125 2.4296875  13.80859375 2.4  13.75 2.4  L 6.25 2.4  C 6.19140625 2.4  6.123046875 2.4296875  6.044921875 2.4890625  C 5.966796875 2.5484375  5.92122395833333 2.603125  5.908203125 2.653125  Z M 17.978515625 10.059375  C 18.2845052083333 9.765625  18.4375 9.4125  18.4375 9  C 18.4375 8.5875  18.2845052083333 8.234375  17.978515625 7.940625  C 17.6725260416667 7.646875  17.3046875 7.5  16.875 7.5  C 16.4453125 7.5  16.0774739583333 7.646875  15.771484375 7.940625  C 15.4654947916667 8.234375  15.3125 8.5875  15.3125 9  C 15.3125 9.4125  15.4654947916667 9.765625  15.771484375 10.059375  C 16.0774739583333 10.353125  16.4453125 10.5  16.875 10.5  C 17.3046875 10.5  17.6725260416667 10.353125  17.978515625 10.059375  Z M 19.3603515625 6.6140625  C 19.7867838541667 7.0234375  20 7.51875  20 8.1  L 20 11.7  C 20 11.7875  19.970703125 11.859375  19.912109375 11.915625  C 19.853515625 11.971875  19.7786458333333 12  19.6875 12  L 18.75 12  L 18.75 13.2  C 18.75 13.7  18.5677083333333 14.125  18.203125 14.475  C 17.8385416666667 14.825  17.3958333333333 15  16.875 15  C 16.3541666666667 15  15.9114583333333 14.825  15.546875 14.475  C 15.1822916666667 14.125  15 13.7  15 13.2  L 15 12  L 5 12  L 5 13.2  C 5 13.7  4.81770833333333 14.125  4.453125 14.475  C 4.08854166666667 14.825  3.64583333333333 15  3.125 15  C 2.60416666666667 15  2.16145833333333 14.825  1.796875 14.475  C 1.43229166666667 14.125  1.25 13.7  1.25 13.2  L 1.25 12  L 0.3125 12  C 0.221354166666667 12  0.146484375 11.971875  0.087890625 11.915625  C 0.029296875 11.859375  0 11.7875  0 11.7  L 0 8.1  C 0 7.51875  0.213216145833333 7.0234375  0.6396484375 6.6140625  C 1.06608072916667 6.2046875  1.58203125 6  2.1875 6  L 2.4609375 6  L 3.486328125 2.071875  C 3.63606770833333 1.484375  3.974609375 0.992187499999999  4.501953125 0.5953125  C 5.029296875 0.198437499999999  5.61197916666667 0  6.25 0  L 13.75 0  C 14.3880208333333 0  14.970703125 0.198437499999999  15.498046875 0.5953125  C 16.025390625 0.992187499999999  16.3639322916667 1.484375  16.513671875 2.071875  L 17.5390625 6  L 17.8125 6  C 18.41796875 6  18.9339192708333 6.2046875  19.3603515625 6.6140625  Z " fill-rule="nonzero" fill="#000000" stroke="none" transform="matrix(1 0 0 1 61 351 )" />
  </g>
</svg>