<?xml version="1.0" encoding="utf-8"?>
<svg version="1.1" xmlns:xlink="http://www.w3.org/1999/xlink" width="20px" height="20px" xmlns="http://www.w3.org/2000/svg">
  <g transform="matrix(1 0 0 1 -56 -16 )">
    <path d="M 66 16  C 71.6 16  76 20.4  76 26  C 76 31.6  71.6 36  66 36  C 60.4 36  56 31.6  56 26  C 56 20.4  60.4 16  66 16  Z " fill-rule="nonzero" fill="#ffffff" stroke="none" />
    <path d="M 66 16.5  C 71.32 16.5  75.5 20.68  75.5 26  C 75.5 31.32  71.32 35.5  66 35.5  C 60.68 35.5  56.5 31.32  56.5 26  C 56.5 20.68  60.68 16.5  66 16.5  Z " stroke-width="1" stroke="#0000ff" fill="none" />
  </g>
</svg>