<?xml version="1.0" encoding="utf-8"?>
<svg version="1.1" xmlns:xlink="http://www.w3.org/1999/xlink" width="20px" height="20px" xmlns="http://www.w3.org/2000/svg">
  <g transform="matrix(1 0 0 1 -25 -16 )">
    <path d="M 35 16  C 40.6 16  45 20.4  45 26  C 45 31.6  40.6 36  35 36  C 29.4 36  25 31.6  25 26  C 25 20.4  29.4 16  35 16  Z " fill-rule="nonzero" fill="#ffffff" stroke="none" />
    <path d="M 35 16.5  C 40.32 16.5  44.5 20.68  44.5 26  C 44.5 31.32  40.32 35.5  35 35.5  C 29.68 35.5  25.5 31.32  25.5 26  C 25.5 20.68  29.68 16.5  35 16.5  Z " stroke-width="1" stroke="#d7d7d7" fill="none" />
  </g>
</svg>