<?xml version="1.0" encoding="utf-8"?>
<svg version="1.1" xmlns:xlink="http://www.w3.org/1999/xlink" width="374px" height="164px" xmlns="http://www.w3.org/2000/svg">
  <defs>
    <mask fill="white" id="clip31">
      <path d="M 28 276  C 25.225 276  23 273.775  23 271  L 23 117  C 23 114.225  25.225 112  28 112  L 392 112  C 394.775 112  397 114.225  397 117  L 397 271  C 397 273.775  394.775 276  392 276  " fill-rule="evenodd" />
    </mask>
  </defs>
  <g transform="matrix(1 0 0 1 -23 -112 )">
    <path d="M 23 112  L 397 112  L 397 276  L 23 276  L 23 112  " fill-rule="nonzero" fill="#cccccc" stroke="none" mask="url(#clip31)" />
    <path d="M 34 123  L 386 123  L 386 265  L 34 265  L 34 123  " fill-rule="nonzero" fill="#ffffff" stroke="none" mask="url(#clip31)" />
    <path d="M 229.78 161.2  C 222.892 161.2  217.48 155.788  217.48 148.9  C 217.48 142.012  222.892 136.6  229.78 136.6  C 236.668 136.6  242.08 142.012  242.08 148.9  C 242.08 155.788  236.668 161.2  229.78 161.2  " fill-rule="nonzero" fill="#cccccc" stroke="none" mask="url(#clip31)" />
    <path d="M 38 261  L 38 187.3  L 124 153.8  L 244.4 225.744385026738  L 313.2 173.9  L 382 225.744385026738  L 382 261  L 38 261  " fill-rule="nonzero" fill="#169bd5" stroke="none" mask="url(#clip31)" />
  </g>
</svg>