<?xml version="1.0" encoding="utf-8"?>
<svg version="1.1" xmlns:xlink="http://www.w3.org/1999/xlink" width="377px" height="35px" xmlns="http://www.w3.org/2000/svg">
  <g transform="matrix(1 0 0 1 -17 -404 )">
    <path d="M 18 409  A 4 4 0 0 1 22 405 L 389 405  A 4 4 0 0 1 393 409 L 393 434  A 4 4 0 0 1 389 438 L 22 438  A 4 4 0 0 1 18 434 L 18 409  Z " fill-rule="nonzero" fill="#f2f2f2" stroke="none" />
    <path d="M 17.5 409  A 4.5 4.5 0 0 1 22 404.5 L 389 404.5  A 4.5 4.5 0 0 1 393.5 409 L 393.5 434  A 4.5 4.5 0 0 1 389 438.5 L 22 438.5  A 4.5 4.5 0 0 1 17.5 434 L 17.5 409  Z " stroke-width="1" stroke="#57bfa0" fill="none" stroke-opacity="0.996078431372549" />
  </g>
</svg>