<?xml version="1.0" encoding="utf-8"?>
<svg version="1.1" xmlns:xlink="http://www.w3.org/1999/xlink" width="15px" height="15px" xmlns="http://www.w3.org/2000/svg">
  <g transform="matrix(1 0 0 1 -375 -15 )">
    <path d="M 382.5 16  C 386.14 16  389 18.86  389 22.5  C 389 26.14  386.14 29  382.5 29  C 378.86 29  376 26.14  376 22.5  C 376 18.86  378.86 16  382.5 16  Z " fill-rule="nonzero" fill="#ffffff" stroke="none" />
    <path d="M 382.5 16  C 386.14 16  389 18.86  389 22.5  C 389 26.14  386.14 29  382.5 29  C 378.86 29  376 26.14  376 22.5  C 376 18.86  378.86 16  382.5 16  Z " stroke-width="2" stroke="#000000" fill="none" />
  </g>
</svg>