<?xml version="1.0" encoding="utf-8"?>
<svg version="1.1" xmlns:xlink="http://www.w3.org/1999/xlink" width="35px" height="35px" xmlns="http://www.w3.org/2000/svg">
  <g transform="matrix(1 0 0 1 -28 -545 )">
    <path d="M 28 545  L 63 545  L 63 580  L 28 580  L 28 545  " fill-rule="nonzero" fill="#cccccc" stroke="none" />
    <path d="M 30 547  L 61 547  L 61 578  L 30 578  L 30 547  " fill-rule="nonzero" fill="#ffffff" stroke="none" />
    <path d="M 48.825 555.5  C 47.355 555.5  46.2 554.345  46.2 552.875  C 46.2 551.405  47.355 550.25  48.825 550.25  C 50.295 550.25  51.45 551.405  51.45 552.875  C 51.45 554.345  50.295 555.5  48.825 555.5  " fill-rule="nonzero" fill="#cccccc" stroke="none" />
    <path d="M 31 577  L 31 561.05  L 38.25 553.8  L 48.4 559.6  L 54.2 558.15  L 60 559.6  L 60 577  L 31 577  " fill-rule="nonzero" fill="#169bd5" stroke="none" />
  </g>
</svg>