<?xml version="1.0" encoding="utf-8"?>
<svg version="1.1" xmlns:xlink="http://www.w3.org/1999/xlink" width="90px" height="77px" xmlns="http://www.w3.org/2000/svg">
  <g transform="matrix(1 0 0 1 -37 -64 )">
    <path d="M 37 64  L 127 64  L 127 141  L 37 141  L 37 64  " fill-rule="nonzero" fill="#cccccc" stroke="none" />
    <path d="M 42 69  L 122 69  L 122 136  L 42 136  L 42 69  " fill-rule="nonzero" fill="#ffffff" stroke="none" />
    <path d="M 89.575 87.1  C 86.341 87.1  83.8 84.559  83.8 81.325  C 83.8 78.091  86.341 75.55  89.575 75.55  C 92.809 75.55  95.35 78.091  95.35 81.325  C 95.35 84.559  92.809 87.1  89.575 87.1  " fill-rule="nonzero" fill="#cccccc" stroke="none" />
    <path d="M 44 134  L 44 99.35  L 63 83.6  L 89.6 101.66  L 104.8 93.05  L 120 101.66  L 120 134  L 44 134  " fill-rule="nonzero" fill="#169bd5" stroke="none" />
  </g>
</svg>