<?xml version="1.0" encoding="utf-8"?>
<svg version="1.1" xmlns:xlink="http://www.w3.org/1999/xlink" width="35px" height="35px" xmlns="http://www.w3.org/2000/svg">
  <g transform="matrix(1 0 0 1 -27 -335 )">
    <path d="M 27 335  L 62 335  L 62 370  L 27 370  L 27 335  " fill-rule="nonzero" fill="#cccccc" stroke="none" />
    <path d="M 29 337  L 60 337  L 60 368  L 29 368  L 29 337  " fill-rule="nonzero" fill="#ffffff" stroke="none" />
    <path d="M 47.825 345.5  C 46.355 345.5  45.2 344.345  45.2 342.875  C 45.2 341.405  46.355 340.25  47.825 340.25  C 49.295 340.25  50.45 341.405  50.45 342.875  C 50.45 344.345  49.295 345.5  47.825 345.5  " fill-rule="nonzero" fill="#cccccc" stroke="none" />
    <path d="M 30 367  L 30 351.05  L 37.25 343.8  L 47.4 349.6  L 53.2 348.15  L 59 349.6  L 59 367  L 30 367  " fill-rule="nonzero" fill="#169bd5" stroke="none" />
  </g>
</svg>